<?xml version="1.0" encoding="utf-8"?>
<!-- Generator: Adobe Illustrator 19.0.0, SVG Export Plug-In . SVG Version: 6.00 Build 0)  -->
<svg version="1.1" id="Layer_1" xmlns="http://www.w3.org/2000/svg" xmlns:xlink="http://www.w3.org/1999/xlink" x="0px" y="0px"
	 viewBox="0 0 237.7 76.1" style="enable-background:new 0 0 237.7 76.1;" xml:space="preserve">
<style type="text/css">
	.st0{fill:#FAAF41;}
	.st1{fill:#2D87C6;}
	.st2{fill:none;stroke:#FAAF41;stroke-width:1.5;stroke-linecap:round;stroke-miterlimit:10;}
	.st3{fill:#5D5E5E;}
	.st4{fill:none;stroke:#FAAF41;stroke-width:0.5;stroke-miterlimit:10;}
	.st5{fill:none;stroke:#FAAF41;stroke-width:0.5;stroke-miterlimit:10;stroke-dasharray:2.0481,2.0481;}
	.st6{fill:none;stroke:#000000;stroke-width:0.5;stroke-miterlimit:10;}
	.st7{fill:none;}
</style>
<g id="XMLID_1_">
	<path id="XMLID_390_" class="st0" d="M24.6,65.9c-0.1,0.8,0.4,1.6,1.2,1.7l17,3c0.8,0.1,1.6-0.4,1.7-1.2l0.1-0.6
		c0.1-0.8-0.4-1.6-1.2-1.7l-17-3c-0.8-0.1-1.6,0.4-1.7,1.2L24.6,65.9z"/>
	<path id="XMLID_387_" class="st0" d="M24.6,61.7c-0.1,0.8,0.4,1.6,1.2,1.7l17,3c0.8,0.1,1.6-0.4,1.7-1.2l0.1-0.6
		c0.1-0.8-0.4-1.6-1.2-1.7l-17-3c-0.8-0.1-1.6,0.4-1.7,1.2L24.6,61.7z"/>
	<path id="XMLID_384_" class="st0" d="M24.6,57.5c-0.1,0.8,0.4,1.6,1.2,1.7l17,3c0.8,0.1,1.6-0.4,1.7-1.2l0.1-0.6
		c0.1-0.8-0.4-1.6-1.2-1.7l-17-3c-0.8-0.1-1.6,0.4-1.7,1.2L24.6,57.5z"/>
	<g id="XMLID_380_">
		<path id="XMLID_383_" class="st1" d="M29.2,69.7c0,2.6,2.5,4.7,5.5,4.7c2.6,0,4.8-1.5,5.4-3.6l-10.8-1.9
			C29.2,69.1,29.2,69.4,29.2,69.7z"/>
	</g>
	<g id="XMLID_368_">
		<g id="XMLID_378_">
			<path id="XMLID_379_" class="st1" d="M25.9,49c-1.6,0-3-0.5-4.2-1.4c-1.3,0.3-4.5,0.8-7.2-1.5c-2.3-1.9-3.2-4.6-2.8-8
				c0.2-1.6,1.1-3.2,2.5-4.3c1-0.8,2.2-1.3,3.4-1.5c0-1.1,0.2-2.7,1.2-3.8c0.8-0.9,1.9-1.4,3.2-1.4c1.6,0,4.3,0.6,4.4,4.6
				c0,0.5-0.4,1-0.9,1c-0.5,0-1-0.4-1-0.9c0-2-0.8-2.8-2.5-2.8c-0.8,0-1.4,0.2-1.8,0.7c-0.8,1-0.8,2.8-0.7,3.4
				c0,0.3-0.1,0.6-0.3,0.8c-0.2,0.2-0.5,0.3-0.8,0.3c-1-0.1-2.2,0.3-3.1,1c-1,0.8-1.7,1.9-1.8,3c-0.3,2.9,0.4,4.8,2.2,6.4
				c2.5,2.2,5.7,1.1,5.9,1c0.3-0.1,0.7,0,1,0.2c1,0.9,2.4,1.3,3.9,1.2c1.7-0.2,3.3-1,4.1-2.1c2-2.8,1.8-6.4,1.7-6.5c0,0,0,0,0-0.1
				V15.5c0-0.5,0.4-0.9,0.9-0.9c0.5,0,0.9,0.4,0.9,0.9v22.9c0,0.5,0.2,4.5-2.1,7.7c-1.1,1.6-3.2,2.7-5.5,2.9
				C26.5,49,26.2,49,25.9,49z"/>
		</g>
		<g id="XMLID_376_">
			<path id="XMLID_377_" class="st1" d="M12.7,39.2c-0.1,0-0.1,0-0.2,0C11,38.8,8.1,37,8.1,32.8c0-2.8,1.6-4.8,3.3-5.7
				c-0.6-0.7-1.3-1.7-1.6-3c-0.3-1.6,0.1-3.2,1.2-4.8c1.3-1.9,4.3-2.8,7-2.1c2.4,0.6,3.9,2.2,4.2,4.4c0.1,0.5-0.3,1-0.8,1.1
				c-0.5,0.1-1-0.3-1.1-0.8c-0.2-1.9-1.8-2.6-2.7-2.8c-1.9-0.5-4.2,0.1-5,1.4c-0.8,1.2-1.1,2.3-0.9,3.3c0.4,1.8,2.1,3,2.1,3
				c0.3,0.2,0.5,0.6,0.4,1c-0.1,0.4-0.4,0.7-0.8,0.7C12,28.6,10,30.1,10,32.8c0,3.8,2.9,4.5,2.9,4.5c0.5,0.1,0.8,0.6,0.7,1.1
				C13.5,38.9,13.1,39.2,12.7,39.2z"/>
		</g>
		<g id="XMLID_374_">
			<path id="XMLID_375_" class="st1" d="M27.1,23.4c-0.2,0-0.4,0-0.6,0c-1.9-0.2-3.2-1.5-3.6-3.4c-0.3-1.9,0.5-3.8,2-4.6
				c1-0.5,2-0.6,2.8-0.3c1.2,0.4,1.7,1.5,1.7,1.7c0.2,0.5,0,1-0.5,1.2c-0.5,0.2-1,0-1.2-0.5c0,0-0.2-0.5-0.7-0.6
				c-0.3-0.1-0.8,0-1.3,0.2c-0.7,0.4-1.1,1.5-1,2.5c0.1,0.6,0.5,1.7,1.9,1.8c1.1,0.1,2.3-0.3,3.3-1.3c1.6-1.5,2.5-4,2.4-6.5
				c-0.2-2.6-2-3.7-2.8-4c-1.5-0.6-3.2-0.5-4.1,0.4c-1.3,1.1-0.9,2.6-0.9,2.6c0.1,0.4-0.1,0.8-0.4,1C23.7,14,23.3,14,23,13.7
				c-0.1-0.1-1.9-1.7-4.2-0.5c-1.1,0.6-2.1,2.5-1.9,4.5c0.1,0.5-0.3,1-0.8,1.1c-0.5,0.1-1-0.3-1.1-0.8c-0.3-2.6,0.9-5.4,2.8-6.4
				c1.9-1,3.6-0.7,4.8-0.2c0.2-0.8,0.6-1.8,1.5-2.6c1.5-1.3,3.9-1.6,6.1-0.7c2.4,1,3.8,3,4,5.6c0.2,3.1-0.9,6-3,8
				C30.1,22.8,28.6,23.4,27.1,23.4z"/>
		</g>
		<g id="XMLID_371_">
			<path id="XMLID_372_" class="st1" d="M32.7,43.8c-0.1,0-0.2,0-0.2,0c-0.5-0.1-0.8-0.7-0.7-1.2l0,0c0.2-0.9,0.7-3.4,0-4.6
				c-0.2-0.3-0.5-0.5-0.8-0.6c-0.9-0.2-1.6-0.1-2.1,0.4c-0.6,0.6-0.6,1.6-0.5,2c0.1,0.5-0.1,1-0.6,1.2c-0.5,0.2-1-0.1-1.2-0.6
				c-0.1-0.2-0.9-2.1-2.8-1.8c-1.3,0.2-1.6,1.3-1.6,1.6c-0.1,0.7,0.1,1.4,0.5,1.6c0.5,0.3,0.6,0.8,0.4,1.3c-0.3,0.5-0.8,0.6-1.3,0.4
				c-1.1-0.6-1.7-2.1-1.5-3.6c0.3-1.7,1.5-2.9,3.2-3.2c1.4-0.2,2.5,0.2,3.3,0.9c0.2-0.4,0.4-0.8,0.7-1.1c0.7-0.7,1.9-1.4,3.9-0.9
				c0.9,0.2,1.5,0.7,2,1.5c1.3,2.1,0.3,5.7,0.2,6.1C33.5,43.5,33.2,43.8,32.7,43.8z"/>
		</g>
		<g id="XMLID_369_">
			<path id="XMLID_370_" class="st1" d="M33.4,35C33.4,35,33.4,35,33.4,35c-0.5,0-1-0.4-0.9-1c0-2.6,0-5.1-0.6-5.7
				c-0.1-0.1-0.3-0.2-0.7-0.2c-1.2,0-1.3,1-1.3,1.3c0,0.5-0.4,0.9-0.9,0.9h0c-0.5,0-0.9-0.4-0.9-1c0-1.3,0.9-3.2,3.2-3.2
				c0.8,0,1.5,0.3,2,0.8c1.2,1.2,1.2,3.7,1.2,7.1C34.3,34.6,33.9,35,33.4,35z"/>
		</g>
	</g>
	<g id="XMLID_354_">
		<g id="XMLID_366_">
			<path id="XMLID_367_" class="st1" d="M43.2,49c-0.3,0-0.5,0-0.8,0c-2.2-0.2-4.3-1.3-5.5-2.9c-2.3-3.2-2.1-7.2-2.1-7.7V15.5
				c0-0.5,0.4-0.9,0.9-0.9c0.5,0,0.9,0.4,0.9,0.9v22.9c0,0,0,0,0,0.1c0,0-0.2,3.7,1.7,6.5c0.8,1.1,2.4,1.9,4.1,2.1
				c1.5,0.1,2.9-0.3,3.9-1.2c0.3-0.2,0.6-0.3,1-0.2c0.1,0,3.3,1.2,5.9-1c1.8-1.5,2.5-3.5,2.2-6.4c-0.1-1.1-0.8-2.2-1.8-3
				c-1-0.8-2.1-1.2-3.1-1c-0.3,0-0.6-0.1-0.8-0.3c-0.2-0.2-0.3-0.5-0.3-0.8c0.1-0.6,0.1-2.4-0.7-3.4c-0.4-0.5-1-0.7-1.8-0.7
				c0,0,0,0-0.1,0c-1.7,0-2.4,0.8-2.4,2.8c0,0.5-0.4,0.9-1,0.9c-0.5,0-0.9-0.4-0.9-1c0.1-4.1,2.8-4.7,4.4-4.6c1.4,0,2.4,0.5,3.2,1.4
				c1,1.2,1.2,2.8,1.2,3.8c1.2,0.1,2.4,0.6,3.4,1.5c1.4,1.1,2.3,2.7,2.5,4.3c0.4,3.5-0.6,6.1-2.8,8c-2.7,2.3-5.9,1.8-7.2,1.5
				C46.3,48.5,44.8,49,43.2,49z"/>
		</g>
		<g id="XMLID_364_">
			<path id="XMLID_365_" class="st1" d="M56.5,39.2c-0.4,0-0.8-0.3-0.9-0.7c-0.1-0.5,0.2-1,0.7-1.1c0.1,0,2.9-0.8,2.9-4.5
				c0-2.7-2-4.2-3.4-4.4c-0.4-0.1-0.7-0.4-0.8-0.7c-0.1-0.4,0.1-0.8,0.4-1c0,0,1.7-1.2,2.1-3c0.2-1.1-0.1-2.2-0.9-3.3
				c-0.8-1.2-3.1-1.8-5-1.4c-0.9,0.2-2.5,0.9-2.7,2.8c-0.1,0.5-0.5,0.9-1.1,0.8C47.3,22.5,47,22,47,21.5c0.3-2.2,1.8-3.8,4.2-4.4
				c2.7-0.7,5.7,0.3,7,2.1c1.1,1.6,1.5,3.2,1.2,4.8c-0.3,1.3-1,2.3-1.6,3c1.7,0.9,3.3,2.9,3.3,5.7c0,4.3-2.9,6-4.4,6.4
				C56.6,39.1,56.5,39.2,56.5,39.2z"/>
		</g>
		<g id="XMLID_362_">
			<path id="XMLID_363_" class="st1" d="M42.1,23.4c-1.5,0-2.9-0.6-4.2-1.8c-2-1.9-3.1-4.9-3-8c0.2-2.6,1.6-4.6,4-5.6
				c2.2-0.9,4.7-0.6,6.1,0.7c0.9,0.8,1.3,1.8,1.5,2.6c1.2-0.5,2.9-0.8,4.8,0.2c1.9,1,3.2,3.8,2.8,6.4c-0.1,0.5-0.5,0.9-1.1,0.8
				c-0.5-0.1-0.9-0.5-0.8-1.1c0.2-2.1-0.8-4-1.9-4.5c-2.2-1.2-4.1,0.5-4.2,0.5c-0.3,0.3-0.8,0.3-1.1,0.1c-0.4-0.2-0.5-0.6-0.4-1
				c0-0.1,0.3-1.5-0.9-2.6c-0.9-0.8-2.6-1-4.1-0.4c-0.8,0.3-2.7,1.4-2.8,4c-0.2,2.5,0.8,4.9,2.4,6.5c1,1,2.2,1.4,3.3,1.3
				c1.4-0.2,1.8-1.2,1.9-1.8c0.2-1.1-0.2-2.2-1-2.5c-0.5-0.3-1-0.3-1.3-0.2c-0.4,0.2-0.7,0.6-0.7,0.6c-0.2,0.5-0.8,0.7-1.2,0.5
				c-0.5-0.2-0.7-0.8-0.5-1.3c0.1-0.1,0.5-1.2,1.7-1.7c0.9-0.3,1.8-0.2,2.8,0.3c1.5,0.7,2.3,2.7,2,4.6c-0.3,1.9-1.7,3.2-3.6,3.4
				C42.5,23.4,42.3,23.4,42.1,23.4z"/>
		</g>
		<g id="XMLID_360_">
			<path id="XMLID_361_" class="st1" d="M36.5,43.8c-0.4,0-0.8-0.3-0.9-0.7c-0.1-0.4-1-3.9,0.2-6.1c0.4-0.8,1.1-1.3,2-1.5
				c2-0.5,3.3,0.2,3.9,0.9c0.3,0.3,0.6,0.7,0.7,1.1c0.8-0.6,1.9-1.1,3.3-0.9c1.7,0.3,2.9,1.5,3.2,3.2c0.3,1.5-0.3,2.9-1.5,3.6
				c-0.5,0.3-1,0.1-1.3-0.4c-0.3-0.5-0.1-1,0.4-1.3c0.4-0.2,0.7-0.9,0.5-1.6c-0.1-0.3-0.4-1.4-1.6-1.6c-1.9-0.3-2.7,1.6-2.8,1.8
				c-0.2,0.5-0.7,0.7-1.2,0.6c-0.5-0.2-0.8-0.7-0.6-1.2c0.1-0.4,0.1-1.4-0.5-2c-0.4-0.5-1.2-0.6-2.1-0.4c-0.4,0.1-0.6,0.3-0.8,0.6
				c-0.7,1.2-0.3,3.8,0,4.6c0.1,0.5-0.2,1-0.7,1.2C36.6,43.8,36.5,43.8,36.5,43.8z"/>
		</g>
		<g id="XMLID_355_">
			<path id="XMLID_359_" class="st1" d="M35.8,35c-0.5,0-0.9-0.4-0.9-0.9c0-3.4,0-5.8,1.2-7.1c0.5-0.5,1.2-0.8,2-0.8
				c2.4,0,3.2,1.9,3.2,3.2c0,0.5-0.4,1-0.9,1c-0.5,0-0.9-0.4-0.9-0.9c0-0.4-0.2-1.3-1.3-1.3c-0.4,0-0.6,0.1-0.7,0.2
				c-0.7,0.7-0.7,3.1-0.6,5.7C36.8,34.6,36.4,35,35.8,35C35.8,35,35.8,35,35.8,35z"/>
		</g>
	</g>
	<g id="XMLID_352_">
		<path id="XMLID_353_" class="st1" d="M41.3,58.1c-0.1,0-0.1,0-0.2,0c-0.5-0.1-0.9-0.6-0.8-1.1c0-0.2,0.9-4.9,6.4-8.4
			c0.4-0.3,1-0.2,1.3,0.3c0.3,0.4,0.2,1-0.3,1.3c-4.8,3.1-5.5,7.1-5.5,7.1C42.2,57.8,41.8,58.1,41.3,58.1z"/>
	</g>
	<g id="XMLID_348_">
		<path id="XMLID_349_" class="st1" d="M27.1,55.4c-0.4,0-0.7-0.2-0.9-0.6c0,0-1.4-3.2-4.5-4.5c-0.5-0.2-0.7-0.8-0.5-1.2
			c0.2-0.5,0.8-0.7,1.2-0.5c3.9,1.7,5.4,5.4,5.5,5.6c0.2,0.5,0,1-0.5,1.2C27.4,55.4,27.3,55.4,27.1,55.4z"/>
	</g>
	<g id="XMLID_344_">
		<path id="XMLID_345_" class="st1" d="M35.6,56.6C35.6,56.6,35.6,56.6,35.6,56.6c-0.3,0-0.6-0.3-0.6-0.6c0-0.1,0-3,1.6-5.2
			c0.2-0.3,0.6-0.3,0.8-0.1c0.3,0.2,0.3,0.6,0.1,0.8c-1.3,1.9-1.4,4.5-1.4,4.5C36.2,56.3,36,56.6,35.6,56.6z"/>
	</g>
	<g id="XMLID_340_">
		<path id="XMLID_341_" class="st1" d="M37.4,51.7c-1,0-1.8-0.8-1.8-1.8c0-1,0.8-1.8,1.8-1.8c1,0,1.8,0.8,1.8,1.8
			C39.2,50.9,38.4,51.7,37.4,51.7z M37.4,49.3c-0.3,0-0.6,0.3-0.6,0.6c0,0.3,0.3,0.6,0.6,0.6c0.3,0,0.6-0.3,0.6-0.6
			C38,49.6,37.8,49.3,37.4,49.3z"/>
	</g>
	<g id="XMLID_336_">
		<path id="XMLID_337_" class="st1" d="M33.6,56.6c-0.3,0-0.6-0.3-0.6-0.6l0,0c0,0,0-2.6-1.4-4.5c-0.2-0.3-0.1-0.6,0.1-0.8
			c0.3-0.2,0.6-0.1,0.8,0.1c1.6,2.2,1.6,5.1,1.6,5.2C34.2,56.3,33.9,56.6,33.6,56.6z"/>
	</g>
	<g id="XMLID_332_">
		<path id="XMLID_333_" class="st1" d="M31.8,51.7c-1,0-1.8-0.8-1.8-1.8c0-1,0.8-1.8,1.8-1.8c1,0,1.8,0.8,1.8,1.8
			C33.6,50.9,32.8,51.7,31.8,51.7z M31.8,49.3c-0.3,0-0.6,0.3-0.6,0.6c0,0.3,0.3,0.6,0.6,0.6c0.3,0,0.6-0.3,0.6-0.6
			C32.4,49.6,32.1,49.3,31.8,49.3z"/>
	</g>
	<line id="XMLID_323_" class="st2" x1="57.2" y1="12.6" x2="60.3" y2="9.5"/>
	<line id="XMLID_312_" class="st2" x1="34.2" y1="6.2" x2="34" y2="1.7"/>
	<line id="XMLID_292_" class="st2" x1="61.8" y1="25.8" x2="66" y2="24.2"/>
	<line id="XMLID_281_" class="st2" x1="60" y1="39.7" x2="63.6" y2="42.2"/>
	<line id="XMLID_270_" class="st2" x1="10.6" y1="14.8" x2="7.6" y2="11.7"/>
	<line id="XMLID_230_" class="st2" x1="6.2" y1="27.9" x2="2.3" y2="26.4"/>
	<line id="XMLID_224_" class="st2" x1="7.9" y1="41.9" x2="4.5" y2="44.4"/>
	<g id="XMLID_127_">
		<path id="XMLID_393_" class="st1" d="M104.6,11.4v0.7c0,2-0.8,3.4-2.5,4c2.1,0.7,2.9,2.2,2.9,4.3V22c0,3.1-2,4.7-5.9,4.7H93V6.8
			h5.9C102.9,6.8,104.6,8.3,104.6,11.4z M96.9,9.7v5.3h1.5c1.4,0,2.3-0.5,2.3-2.1v-1.1c0-1.4-0.6-2-2-2H96.9z M96.9,17.8v6.1h2.2
			c1.3,0,2-0.5,2-2v-1.7c0-1.8-0.7-2.4-2.5-2.4H96.9z"/>
		<path id="XMLID_399_" class="st1" d="M111,6.8v15.3c0,1.4,0.8,1.9,2,1.9c1.2,0,2-0.5,2-1.9V6.8h3.7V22c0,3.2-2,5-5.8,5
			c-3.8,0-5.8-1.8-5.8-5V6.8H111z"/>
		<path id="XMLID_403_" class="st1" d="M126.6,6.6c3.8,0,5.7,1.8,5.7,5v0.6h-3.7v-0.8c0-1.4-0.7-2-1.9-2s-1.9,0.5-1.9,2
			c0,4.1,7.6,4.9,7.6,10.5c0,3.2-2,5-5.8,5c-3.8,0-5.8-1.8-5.8-5v-1.2h3.7v1.4c0,1.4,0.8,1.9,2,1.9s2-0.5,2-1.9
			c0-4.1-7.6-4.9-7.6-10.5C120.9,8.4,122.8,6.6,126.6,6.6z"/>
		<path id="XMLID_405_" class="st1" d="M134.6,6.8h3.9v19.9h-3.9V6.8z"/>
		<path id="XMLID_407_" class="st1" d="M144.7,12.3v14.4h-3.5V6.8h4.9l4,11.9V6.8h3.5v19.9h-4L144.7,12.3z"/>
		<path id="XMLID_410_" class="st1" d="M160.2,15.2h5.3v2.8h-5.3v5.8h6.7v2.8h-10.6V6.8h10.6v2.8h-6.7V15.2z"/>
		<path id="XMLID_414_" class="st1" d="M174.6,6.6c3.8,0,5.7,1.8,5.7,5v0.6h-3.7v-0.8c0-1.4-0.7-2-1.9-2s-1.9,0.5-1.9,2
			c0,4.1,7.6,4.9,7.6,10.5c0,3.2-2,5-5.8,5c-3.8,0-5.8-1.8-5.8-5v-1.2h3.7v1.4c0,1.4,0.8,1.9,2,1.9s2-0.5,2-1.9
			c0-4.1-7.6-4.9-7.6-10.5C168.9,8.4,170.8,6.6,174.6,6.6z"/>
		<path id="XMLID_416_" class="st1" d="M187.8,6.6c3.8,0,5.7,1.8,5.7,5v0.6h-3.7v-0.8c0-1.4-0.7-2-1.9-2c-1.2,0-1.9,0.5-1.9,2
			c0,4.1,7.6,4.9,7.6,10.5c0,3.2-2,5-5.8,5c-3.8,0-5.8-1.8-5.8-5v-1.2h3.7v1.4c0,1.4,0.8,1.9,2,1.9s2-0.5,2-1.9
			c0-4.1-7.6-4.9-7.6-10.5C182.1,8.4,184,6.6,187.8,6.6z"/>
		<path id="XMLID_418_" class="st1" d="M93,30.9h3.9v19.9H93V30.9z"/>
		<path id="XMLID_422_" class="st1" d="M103.2,36.3v14.4h-3.5V30.9h4.9l4,11.9V30.9h3.5v19.9h-4L103.2,36.3z"/>
		<path id="XMLID_424_" class="st1" d="M113.6,30.9h12v2.8h-4.1v17h-3.9v-17h-4.1V30.9z"/>
		<path id="XMLID_426_" class="st1" d="M131.2,39.2h5.3v2.8h-5.3v5.8h6.7v2.8h-10.6V30.9h10.6v2.8h-6.7V39.2z"/>
		<path id="XMLID_428_" class="st1" d="M140.3,30.9h3.9v17h6.4v2.8h-10.3V30.9z"/>
		<path id="XMLID_430_" class="st1" d="M152.3,30.9h3.9v17h6.4v2.8h-10.3V30.9z"/>
		<path id="XMLID_432_" class="st1" d="M164.3,30.9h3.9v19.9h-3.9V30.9z"/>
		<path id="XMLID_434_" class="st1" d="M176.8,39.7h5.4V46c0,3.2-2,5-5.8,5c-3.8,0-5.8-1.8-5.8-5V35.6c0-3.2,2-5,5.8-5
			c3.8,0,5.8,1.8,5.8,5v1.9h-3.7v-2.1c0-1.4-0.8-2-2-2c-1.2,0-2,0.5-2,2v10.7c0,1.4,0.8,1.9,2,1.9c1.2,0,2-0.5,2-1.9v-3.7h-1.8V39.7
			z"/>
		<path id="XMLID_436_" class="st1" d="M188.6,39.2h5.3v2.8h-5.3v5.8h6.7v2.8h-10.6V30.9h10.6v2.8h-6.7V39.2z"/>
		<path id="XMLID_440_" class="st1" d="M201.2,36.3v14.4h-3.5V30.9h4.9l4,11.9V30.9h3.5v19.9h-4L201.2,36.3z"/>
		<path id="XMLID_442_" class="st1" d="M224.1,43.3V46c0,3.2-2,5-5.8,5c-3.8,0-5.8-1.8-5.8-5V35.6c0-3.2,2-5,5.8-5
			c3.8,0,5.8,1.8,5.8,5v1.9h-3.7v-2.1c0-1.4-0.8-2-2-2c-1.2,0-2,0.5-2,2v10.7c0,1.4,0.8,1.9,2,1.9c1.2,0,2-0.5,2-1.9v-2.8H224.1z"/>
		<path id="XMLID_444_" class="st1" d="M230.3,39.2h5.3v2.8h-5.3v5.8h6.7v2.8h-10.6V30.9H237v2.8h-6.7V39.2z"/>
	</g>
	<g id="XMLID_160_">
		<line id="XMLID_216_" class="st3" x1="-6351.6" y1="-2834.5" x2="-6351.6" y2="-2769"/>
		<g id="XMLID_207_">
			<line id="XMLID_213_" class="st4" x1="-6351.6" y1="-2834.5" x2="-6351.6" y2="-2833.5"/>
			<line id="XMLID_212_" class="st5" x1="-6351.6" y1="-2831.4" x2="-6351.6" y2="-2771"/>
			<line id="XMLID_210_" class="st4" x1="-6351.6" y1="-2770" x2="-6351.6" y2="-2769"/>
		</g>
	</g>
	<g id="XMLID_223_">
		<path id="XMLID_448_" d="M95.7,68.7L95,71h-1l2.5-7.3h1.1l2.5,7.3h-1l-0.8-2.3H95.7z M98.1,68l-0.7-2.1c-0.2-0.5-0.3-0.9-0.4-1.3
			h0c-0.1,0.4-0.2,0.9-0.4,1.3L95.9,68H98.1z"/>
		<path id="XMLID_451_" d="M103.4,63.8c0.5-0.1,1-0.1,1.8-0.1c0.9,0,1.6,0.2,2,0.6c0.4,0.3,0.6,0.9,0.6,1.5c0,0.7-0.2,1.2-0.6,1.6
			c-0.5,0.5-1.3,0.8-2.2,0.8c-0.3,0-0.5,0-0.8-0.1V71h-0.9V63.8z M104.4,67.3c0.2,0.1,0.5,0.1,0.8,0.1c1.1,0,1.8-0.6,1.8-1.6
			c0-1-0.7-1.4-1.7-1.4c-0.4,0-0.7,0-0.9,0.1V67.3z"/>
		<path id="XMLID_454_" d="M109.1,63.3h1v3.3h0c0.2-0.3,0.4-0.5,0.7-0.7c0.3-0.2,0.6-0.3,1-0.3c0.7,0,1.8,0.4,1.8,2.2V71h-1v-3
			c0-0.8-0.3-1.6-1.2-1.6c-0.6,0-1.1,0.4-1.3,1c-0.1,0.1-0.1,0.3-0.1,0.5V71h-1V63.3z"/>
		<path id="XMLID_457_" d="M118.8,69.7c0,0.5,0,0.9,0.1,1.3H118l-0.1-0.7h0c-0.3,0.4-0.9,0.8-1.6,0.8c-1.1,0-1.6-0.7-1.6-1.5
			c0-1.3,1.1-2,3.1-1.9v-0.1c0-0.4-0.1-1.2-1.2-1.2c-0.5,0-1,0.2-1.4,0.4l-0.2-0.6c0.4-0.3,1.1-0.5,1.7-0.5c1.6,0,2,1.1,2,2.1V69.7z
			 M117.8,68.3c-1,0-2.2,0.2-2.2,1.2c0,0.6,0.4,0.9,0.9,0.9c0.7,0,1.1-0.4,1.3-0.9c0-0.1,0.1-0.2,0.1-0.3V68.3z"/>
		<path id="XMLID_492_" d="M120.3,67.4c0-0.6,0-1.1,0-1.6h0.8l0,1h0c0.2-0.7,0.8-1.1,1.4-1.1c0.1,0,0.2,0,0.3,0v0.9
			c-0.1,0-0.2,0-0.3,0c-0.7,0-1.1,0.5-1.3,1.2c0,0.1,0,0.3,0,0.4V71h-0.9V67.4z"/>
		<path id="XMLID_500_" d="M123.9,67.2c0-0.5,0-1,0-1.4h0.8l0,0.8h0c0.3-0.5,0.8-1,1.6-1c0.7,0,1.3,0.4,1.5,1h0
			c0.2-0.3,0.4-0.5,0.6-0.7c0.3-0.2,0.7-0.4,1.2-0.4c0.7,0,1.7,0.5,1.7,2.3V71h-0.9v-3c0-1-0.4-1.6-1.1-1.6c-0.5,0-1,0.4-1.1,0.9
			c0,0.1-0.1,0.3-0.1,0.5V71h-0.9v-3.1c0-0.8-0.4-1.4-1.1-1.4c-0.6,0-1,0.5-1.2,1c-0.1,0.1-0.1,0.3-0.1,0.5V71h-0.9V67.2z"/>
		<path id="XMLID_502_" d="M136.6,69.7c0,0.5,0,0.9,0.1,1.3h-0.9l-0.1-0.7h0c-0.3,0.4-0.9,0.8-1.6,0.8c-1.1,0-1.6-0.7-1.6-1.5
			c0-1.3,1.1-2,3.1-1.9v-0.1c0-0.4-0.1-1.2-1.2-1.2c-0.5,0-1,0.2-1.4,0.4l-0.2-0.6c0.4-0.3,1.1-0.5,1.7-0.5c1.6,0,2,1.1,2,2.1V69.7z
			 M135.6,68.3c-1,0-2.2,0.2-2.2,1.2c0,0.6,0.4,0.9,0.9,0.9c0.7,0,1.1-0.4,1.3-0.9c0-0.1,0.1-0.2,0.1-0.3V68.3z"/>
		<path id="XMLID_505_" d="M140.4,63.8c0.4-0.1,1.1-0.2,1.7-0.2c0.9,0,1.5,0.2,2,0.5c0.4,0.3,0.6,0.7,0.6,1.3c0,0.7-0.5,1.3-1.2,1.6
			v0c0.7,0.2,1.5,0.7,1.5,1.8c0,0.6-0.2,1.1-0.6,1.5c-0.5,0.5-1.3,0.7-2.5,0.7c-0.6,0-1.1,0-1.5-0.1V63.8z M141.3,66.8h0.9
			c1,0,1.6-0.5,1.6-1.2c0-0.9-0.6-1.2-1.6-1.2c-0.4,0-0.7,0-0.8,0.1V66.8z M141.3,70.3c0.2,0,0.5,0,0.8,0c1,0,1.9-0.4,1.9-1.4
			c0-1-0.9-1.4-1.9-1.4h-0.8V70.3z"/>
		<path id="XMLID_509_" d="M150.6,69.6c0,0.5,0,1,0,1.4h-0.8l-0.1-0.9h0c-0.2,0.4-0.8,1-1.7,1c-0.8,0-1.8-0.5-1.8-2.3v-3.1h1v2.9
			c0,1,0.3,1.7,1.2,1.7c0.6,0,1.1-0.4,1.3-0.9c0.1-0.1,0.1-0.3,0.1-0.5v-3.2h1V69.6z"/>
		<path id="XMLID_513_" d="M152.1,70c0.3,0.2,0.8,0.4,1.3,0.4c0.7,0,1-0.3,1-0.8c0-0.5-0.3-0.7-1-1c-0.9-0.3-1.4-0.9-1.4-1.5
			c0-0.8,0.7-1.5,1.8-1.5c0.5,0,1,0.2,1.3,0.3l-0.2,0.7c-0.2-0.1-0.6-0.3-1.1-0.3c-0.6,0-0.9,0.3-0.9,0.7c0,0.4,0.3,0.6,1,0.9
			c0.9,0.3,1.4,0.8,1.4,1.6c0,0.9-0.7,1.6-2,1.6c-0.6,0-1.1-0.2-1.5-0.4L152.1,70z"/>
		<path id="XMLID_515_" d="M157.5,64.3c0,0.3-0.2,0.6-0.6,0.6c-0.3,0-0.6-0.3-0.6-0.6c0-0.3,0.2-0.6,0.6-0.6
			C157.3,63.7,157.5,64,157.5,64.3z M156.5,71v-5.2h1V71H156.5z"/>
		<path id="XMLID_521_" d="M159,67.2c0-0.5,0-1,0-1.4h0.8l0.1,0.9h0c0.3-0.5,0.9-1,1.7-1c0.7,0,1.8,0.4,1.8,2.2V71h-1v-3
			c0-0.8-0.3-1.5-1.2-1.5c-0.6,0-1.1,0.4-1.3,1c0,0.1-0.1,0.3-0.1,0.4V71h-1V67.2z"/>
		<path id="XMLID_523_" d="M165.5,68.5c0,1.3,0.8,1.8,1.8,1.8c0.7,0,1.1-0.1,1.4-0.3l0.2,0.7c-0.3,0.2-0.9,0.3-1.7,0.3
			c-1.6,0-2.6-1.1-2.6-2.6c0-1.6,0.9-2.8,2.5-2.8c1.7,0,2.2,1.5,2.2,2.5c0,0.2,0,0.3,0,0.4H165.5z M168.3,67.9
			c0-0.6-0.2-1.5-1.3-1.5c-1,0-1.4,0.9-1.5,1.5H168.3z"/>
		<path id="XMLID_526_" d="M170.3,70c0.3,0.2,0.8,0.4,1.3,0.4c0.7,0,1-0.3,1-0.8c0-0.5-0.3-0.7-1-1c-0.9-0.3-1.4-0.9-1.4-1.5
			c0-0.8,0.7-1.5,1.8-1.5c0.5,0,1,0.2,1.3,0.3l-0.2,0.7c-0.2-0.1-0.6-0.3-1.1-0.3c-0.6,0-0.9,0.3-0.9,0.7c0,0.4,0.3,0.6,1,0.9
			c0.9,0.3,1.4,0.8,1.4,1.6c0,0.9-0.7,1.6-2,1.6c-0.6,0-1.1-0.2-1.5-0.4L170.3,70z"/>
		<path id="XMLID_528_" d="M174.5,70c0.3,0.2,0.8,0.4,1.3,0.4c0.7,0,1-0.3,1-0.8c0-0.5-0.3-0.7-1-1c-0.9-0.3-1.4-0.9-1.4-1.5
			c0-0.8,0.7-1.5,1.8-1.5c0.5,0,1,0.2,1.3,0.3l-0.2,0.7c-0.2-0.1-0.6-0.3-1.1-0.3c-0.6,0-0.9,0.3-0.9,0.7c0,0.4,0.3,0.6,1,0.9
			c0.9,0.3,1.4,0.8,1.4,1.6c0,0.9-0.7,1.6-2,1.6c-0.6,0-1.1-0.2-1.5-0.4L174.5,70z"/>
		<path id="XMLID_530_" d="M182.4,68.7l-0.8,2.3h-1l2.5-7.3h1.1l2.5,7.3h-1l-0.8-2.3H182.4z M184.8,68l-0.7-2.1
			c-0.2-0.5-0.3-0.9-0.4-1.3h0c-0.1,0.4-0.2,0.9-0.4,1.3l-0.7,2.1H184.8z"/>
		<path id="XMLID_533_" d="M187.8,67.2c0-0.5,0-1,0-1.4h0.8l0.1,0.9h0c0.3-0.5,0.9-1,1.7-1c0.7,0,1.8,0.4,1.8,2.2V71h-1v-3
			c0-0.8-0.3-1.5-1.2-1.5c-0.6,0-1.1,0.4-1.3,1c0,0.1-0.1,0.3-0.1,0.4V71h-1V67.2z"/>
		<path id="XMLID_535_" d="M197.5,69.7c0,0.5,0,0.9,0.1,1.3h-0.9l-0.1-0.7h0c-0.3,0.4-0.9,0.8-1.6,0.8c-1.1,0-1.6-0.7-1.6-1.5
			c0-1.3,1.1-2,3.1-1.9v-0.1c0-0.4-0.1-1.2-1.2-1.2c-0.5,0-1,0.2-1.4,0.4l-0.2-0.6c0.4-0.3,1.1-0.5,1.7-0.5c1.6,0,2,1.1,2,2.1V69.7z
			 M196.6,68.3c-1,0-2.2,0.2-2.2,1.2c0,0.6,0.4,0.9,0.9,0.9c0.7,0,1.1-0.4,1.3-0.9c0-0.1,0.1-0.2,0.1-0.3V68.3z"/>
		<path id="XMLID_538_" d="M199,63.3h1V71h-1V63.3z"/>
		<path id="XMLID_540_" d="M201.9,65.8l1.1,3.1c0.1,0.3,0.2,0.8,0.3,1.1h0c0.1-0.3,0.2-0.7,0.3-1.1l1-3.1h1l-1.4,3.7
			c-0.7,1.8-1.1,2.7-1.8,3.3c-0.5,0.4-0.9,0.6-1.2,0.6l-0.2-0.8c0.2-0.1,0.6-0.2,0.8-0.5c0.3-0.2,0.6-0.6,0.8-1.1
			c0-0.1,0.1-0.2,0.1-0.2c0-0.1,0-0.1-0.1-0.2l-1.9-4.8H201.9z"/>
		<path id="XMLID_542_" d="M206.5,70c0.3,0.2,0.8,0.4,1.3,0.4c0.7,0,1-0.3,1-0.8c0-0.5-0.3-0.7-1-1c-0.9-0.3-1.4-0.9-1.4-1.5
			c0-0.8,0.7-1.5,1.8-1.5c0.5,0,1,0.2,1.3,0.3l-0.2,0.7c-0.2-0.1-0.6-0.3-1.1-0.3c-0.6,0-0.9,0.3-0.9,0.7c0,0.4,0.3,0.6,1,0.9
			c0.9,0.3,1.4,0.8,1.4,1.6c0,0.9-0.7,1.6-2,1.6c-0.6,0-1.1-0.2-1.5-0.4L206.5,70z"/>
		<path id="XMLID_544_" d="M211.9,64.3c0,0.3-0.2,0.6-0.6,0.6c-0.3,0-0.6-0.3-0.6-0.6c0-0.3,0.2-0.6,0.6-0.6
			C211.7,63.7,211.9,64,211.9,64.3z M210.9,71v-5.2h1V71H210.9z"/>
		<path id="XMLID_547_" d="M213.3,70c0.3,0.2,0.8,0.4,1.3,0.4c0.7,0,1-0.3,1-0.8c0-0.5-0.3-0.7-1-1c-0.9-0.3-1.4-0.9-1.4-1.5
			c0-0.8,0.7-1.5,1.8-1.5c0.5,0,1,0.2,1.3,0.3l-0.2,0.7c-0.2-0.1-0.6-0.3-1.1-0.3c-0.6,0-0.9,0.3-0.9,0.7c0,0.4,0.3,0.6,1,0.9
			c0.9,0.3,1.4,0.8,1.4,1.6c0,0.9-0.7,1.6-2,1.6c-0.6,0-1.1-0.2-1.5-0.4L213.3,70z"/>
		<path id="XMLID_549_" d="M220.9,64.5h-2.2v-0.8h5.4v0.8h-2.2V71h-1V64.5z"/>
		<path id="XMLID_551_" d="M228.8,68.3c0,1.9-1.3,2.8-2.6,2.8c-1.4,0-2.5-1-2.5-2.7c0-1.8,1.1-2.8,2.6-2.8
			C227.8,65.6,228.8,66.7,228.8,68.3z M224.7,68.4c0,1.1,0.7,2,1.6,2c0.9,0,1.6-0.9,1.6-2c0-0.9-0.4-2-1.6-2S224.7,67.4,224.7,68.4z
			"/>
		<path id="XMLID_554_" d="M234.8,68.3c0,1.9-1.3,2.8-2.6,2.8c-1.4,0-2.5-1-2.5-2.7c0-1.8,1.1-2.8,2.6-2.8
			C233.8,65.6,234.8,66.7,234.8,68.3z M230.6,68.4c0,1.1,0.7,2,1.6,2c0.9,0,1.6-0.9,1.6-2c0-0.9-0.4-2-1.6-2S230.6,67.4,230.6,68.4z
			"/>
		<path id="XMLID_557_" d="M236,63.3h1V71h-1V63.3z"/>
	</g>
	<line id="XMLID_153_" class="st6" x1="93.7" y1="58.1" x2="237.7" y2="58.1"/>
	<line id="XMLID_152_" class="st7" x1="237.7" y1="73" x2="237.4" y2="73"/>
	<g id="XMLID_151_">
		<path id="XMLID_559_" class="st1" d="M196.8,26.9c-0.1,0-0.3-0.1-0.4-0.2c-0.2-0.2-0.2-0.5,0-0.7l9.2-8.6l12,4.2l13.9-14.5
			c0.2-0.2,0.5-0.2,0.7,0c0.2,0.2,0.2,0.5,0,0.7l-14.4,15l-12-4.2l-8.8,8.2C197,26.8,196.9,26.9,196.8,26.9z"/>
	</g>
	<g id="XMLID_137_">
		<g id="XMLID_18_">
			<path id="XMLID_22_" class="st0" d="M228.6,7.6c1.4-0.1,2.7-0.3,4.1-0.4c-0.2-0.2-0.4-0.4-0.6-0.6c0.1,1.4,0.2,2.7,0.4,4.1
				c0.1,0.8,1.3,0.8,1.2,0c-0.1-1.4-0.2-2.7-0.4-4.1c0-0.3-0.3-0.6-0.6-0.6c-1.4,0.1-2.7,0.3-4.1,0.4C227.9,6.5,227.9,7.7,228.6,7.6
				L228.6,7.6z"/>
		</g>
	</g>
	<circle id="XMLID_131_" class="st0" cx="205.9" cy="18.1" r="1.8"/>
	<circle id="XMLID_128_" class="st0" cx="217.5" cy="21.7" r="1.8"/>
</g>
</svg>
