<?xml version="1.0" encoding="utf-8"?>
<!-- Generator: Adobe Illustrator 19.0.0, SVG Export Plug-In . SVG Version: 6.00 Build 0)  -->
<svg version="1.1" id="Layer_1" xmlns="http://www.w3.org/2000/svg" xmlns:xlink="http://www.w3.org/1999/xlink" x="0px" y="0px"
	 viewBox="0 0 28.3 85" style="enable-background:new 0 0 28.3 85;" xml:space="preserve">
<style type="text/css">
	.st0{opacity:0.5;fill:#FFFFFF;}
</style>
<path id="XMLID_481_" class="st0" d="M26.8,83.3h-2v-1h2V83.3z M23,81.3l-1.4-2.6l0.9-0.5l1.4,2.6L23,81.3z M20.1,76.1l-1.4-2.6
	l0.9-0.5l1.4,2.6L20.1,76.1z M17.3,70.8l-1.4-2.6l0.9-0.5l1.4,2.6L17.3,70.8z M14.4,65.5L13,62.9l0.9-0.5l1.4,2.6L14.4,65.5z
	 M11.6,60.2l-1.4-2.6l0.9-0.5l1.4,2.6L11.6,60.2z M8.7,54.9l-1.4-2.6l0.9-0.5l1.4,2.6L8.7,54.9z M5.9,49.7L4.4,47l0.9-0.5l1.4,2.6
	L5.9,49.7z M3,44.4l-1.4-2.6l0.9-0.5l1.4,2.6L3,44.4z M3.3,39.2l-0.9-0.5l1.5-2.6l0.9,0.5L3.3,39.2z M6.3,34l-0.9-0.5l1.5-2.6
	l0.9,0.5L6.3,34z M9.3,28.8l-0.9-0.5l1.5-2.6l0.9,0.5L9.3,28.8z M12.4,23.6l-0.9-0.5l1.5-2.6l0.9,0.5L12.4,23.6z M15.4,18.4
	l-0.9-0.5l1.5-2.6l0.9,0.5L15.4,18.4z M18.4,13.3l-0.9-0.5l1.5-2.6l0.9,0.5L18.4,13.3z M21.5,8.1l-0.9-0.5L22.1,5L23,5.5L21.5,8.1z
	 M24.2,2.9l-0.6-0.5l0.3-0.7h1.6v1h-1.2L24.2,2.9z"/>
</svg>
