<?xml version="1.0" encoding="utf-8"?>
<!-- Generator: Adobe Illustrator 19.0.0, SVG Export Plug-In . SVG Version: 6.00 Build 0)  -->
<svg version="1.1" id="Layer_1" xmlns="http://www.w3.org/2000/svg" xmlns:xlink="http://www.w3.org/1999/xlink" x="0px" y="0px"
	 viewBox="-280 403.9 35 35" style="enable-background:new -280 403.9 35 35;" xml:space="preserve">
<g>
	<g>
		<g>
			<path d="M-249.8,429.7c-0.7-0.7-1.2-1.6-1.2-2.6v-6.8c0-0.4-0.3-0.7-0.7-0.7c-0.4,0-0.7,0.3-0.7,0.7v6.8c0,1.4,0.6,2.7,1.6,3.6
				c0.4,0.3,0.6,0.8,0.6,1.3c0,1-0.8,1.8-1.8,1.8h-21.3c-1,0-1.8-0.8-1.8-1.8c0-0.5,0.2-1,0.6-1.3c1-0.9,1.6-2.3,1.6-3.6v-7.9
				c0-5.6,4.6-10.2,10.2-10.2c1.4,0,2.9,0.3,4.2,0.9c0.2,0,0.3-0.1,0.5-0.1c0,0,0.1-0.1,0.1-0.1c0.1-0.1,0.2-0.2,0.3-0.3
				c0.1-0.1,0.1-0.3,0.2-0.4c0,0,0,0,0,0c0,0,0,0,0,0c-1-0.5-2.1-0.9-3.2-1.1c0.3-0.4,0.4-0.9,0.4-1.4c0-1.4-1.1-2.5-2.5-2.5
				c-1.4,0-2.5,1.1-2.5,2.5c0,0.5,0.1,1,0.4,1.4c-5.4,1-9.5,5.7-9.5,11.4v7.9c0,1-0.4,1.9-1.2,2.6c-0.6,0.6-1,1.4-1,2.3
				c0,1.7,1.4,3.1,3.1,3.1h6.3c0.3,2.1,2.1,3.7,4.3,3.7s4-1.6,4.3-3.7h6.3c1.7,0,3.1-1.4,3.1-3.1
				C-248.7,431.1-249.1,430.3-249.8,429.7z M-262.5,405.3c0.6,0,1.2,0.5,1.2,1.2c0,0.6-0.5,1.2-1.2,1.2s-1.2-0.5-1.2-1.2
				C-263.7,405.8-263.2,405.3-262.5,405.3z M-262.5,437.5c-1.4,0-2.6-1-2.9-2.3h5.8C-259.9,436.5-261.1,437.5-262.5,437.5z"/>
		</g>
		<g>
			<g>
				<path d="M-276.3,432c0,1.7,1.4,3.1,3.1,3.1h6.3c0.3,2.1,2.1,3.7,4.3,3.7s4-1.6,4.3-3.7h6.3c1.7,0,3.1-1.4,3.1-3.1
					c0-0.9-0.4-1.7-1-2.3c-0.7-0.7-1.2-1.6-1.2-2.6v-7.9c0-5.7-4.1-10.4-9.5-11.4c0.3-0.4,0.4-0.9,0.4-1.4c0-1.4-1.1-2.5-2.5-2.5
					c-1.4,0-2.5,1.1-2.5,2.5c0,0.5,0.1,1,0.4,1.4c-1.1,0.2-2.2,0.6-3.2,1.1c0,0,0,0,0,0c0,0,0,0,0,0c0.1,0.1,0.1,0.3,0.2,0.4
					c0.1,0.1,0.2,0.2,0.3,0.3c0,0,0.1,0.1,0.1,0.1c0.2,0,0.3,0,0.5,0.1c1.3-0.6,2.7-0.9,4.2-0.9c5.6,0,10.2,4.6,10.2,10.2v7.9
					c0,1.4,0.6,2.7,1.6,3.6c0.4,0.3,0.6,0.8,0.6,1.3c0,1-0.8,1.8-1.8,1.8h-21.3c-1,0-1.8-0.8-1.8-1.8c0-0.5,0.2-1,0.6-1.3
					c1-0.9,1.6-2.3,1.6-3.6v-6.8c0-0.4-0.3-0.7-0.7-0.7c-0.4,0-0.7,0.3-0.7,0.7v6.8c0,1-0.4,1.9-1.2,2.6
					C-275.9,430.3-276.3,431.1-276.3,432z M-261.3,406.5c0,0.6-0.5,1.2-1.2,1.2s-1.2-0.5-1.2-1.2c0-0.6,0.5-1.2,1.2-1.2
					C-261.8,405.3-261.3,405.8-261.3,406.5z M-265.4,435.2h5.8c-0.3,1.3-1.5,2.3-2.9,2.3S-265.1,436.5-265.4,435.2z"/>
			</g>
		</g>
	</g>
	<g>
		<g>
			<path d="M-270.1,418.5c-0.4,0-0.7,0.3-0.7,0.7v0c0,0.4,0.3,0.7,0.7,0.7s0.7-0.3,0.7-0.7v0C-269.5,418.8-269.8,418.5-270.1,418.5z
				"/>
		</g>
	</g>
	<g>
		<g>
			<path d="M-262.5,410.9c-3.3,0-6.4,2-7.7,5.1c-0.1,0.3,0,0.7,0.4,0.9c0.1,0,0.2,0.1,0.3,0.1c0.3,0,0.5-0.2,0.6-0.4
				c1.1-2.6,3.6-4.2,6.4-4.2c0.4,0,0.7-0.3,0.7-0.7C-261.8,411.2-262.1,410.9-262.5,410.9z"/>
		</g>
	</g>
</g>
</svg>
