<?xml version="1.0" encoding="utf-8"?>
<!-- Generator: Adobe Illustrator 19.0.0, SVG Export Plug-In . SVG Version: 6.00 Build 0)  -->
<svg version="1.1" id="Layer_1" xmlns="http://www.w3.org/2000/svg" xmlns:xlink="http://www.w3.org/1999/xlink" x="0px" y="0px"
	 viewBox="0 0 35 35" style="enable-background:new 0 0 35 35;" xml:space="preserve">
<style type="text/css">
	.st0{fill:#FFFFFF;}
</style>
<g id="XMLID_14_">
	<g id="XMLID_61_">
		<g id="People_9_">
			<g id="Icon-38_9_">
				<path id="glass-stats_9_" class="st0" d="M28,14c0-6-3.8-11.3-9.6-13.1c-0.3-0.1-0.6,0.1-0.7,0.4c-0.1,0.3,0.1,0.6,0.4,0.7
					c5.2,1.7,8.8,6.5,8.8,12c0,6.9-5.7,12.6-12.6,12.6S1.7,21,1.7,14c0-5.5,3.5-10.3,8.8-12c0.3-0.1,0.5-0.4,0.4-0.7
					c-0.1-0.3-0.4-0.5-0.7-0.4C4.4,2.8,0.5,8,0.5,14c0,7.6,6.2,13.7,13.7,13.7S28,21.6,28,14 M4.9,8.5c-0.3-0.1-0.6,0-0.8,0.2
					c-0.9,1.6-1.3,3.5-1.3,5.3c0,6.3,5.1,11.5,11.5,11.5S25.7,20.3,25.7,14c0-4.7-2.8-8.9-7.2-10.6c-0.3-0.1-0.6,0-0.7,0.3
					c-0.1,0.3,0,0.6,0.3,0.7c4,1.6,6.5,5.3,6.5,9.6c0,5.7-4.6,10.3-10.3,10.3S4,19.7,4,14c0-1.7,0.4-3.3,1.2-4.8
					C5.3,8.9,5.2,8.6,4.9,8.5 M21.7,18.6c0.3,0,0.6-0.3,0.6-0.6v-8c0-0.3-0.3-0.6-0.6-0.6h-3.4c-0.3,0-0.6,0.3-0.6,0.6v11.5
					c0,0.3,0.3,0.6,0.6,0.6c0.3,0,0.6-0.3,0.6-0.6V10.6h2.3V18C21.1,18.3,21.4,18.6,21.7,18.6 M12.6,23.2c0.3,0,0.6-0.3,0.6-0.6V1.4
					h2.3v21.2c0,0.3,0.3,0.6,0.6,0.6c0.3,0,0.6-0.3,0.6-0.6V0.9c0-0.3-0.3-0.6-0.6-0.6h-3.4c-0.3,0-0.6,0.3-0.6,0.6v21.8
					C12,22.9,12.2,23.2,12.6,23.2 M10.3,4.9H6.8c-0.3,0-0.6,0.3-0.6,0.6V18c0,0.3,0.3,0.6,0.6,0.6s0.6-0.3,0.6-0.6V6h2.3v15.5
					c0,0.3,0.3,0.6,0.6,0.6s0.6-0.3,0.6-0.6v-16C10.8,5.1,10.6,4.9,10.3,4.9 M26.5,23c-0.2,0.2-0.2,0.6,0,0.8l1.2,1.2
					c0.1,0.1,0.3,0.2,0.4,0.2c0.1,0,0.3-0.1,0.4-0.2c0.2-0.2,0.2-0.6,0-0.8L27.3,23C27,22.7,26.7,22.7,26.5,23 M34.9,31.8
					c0,0.8-0.3,1.5-0.8,2c-0.6,0.6-1.3,0.8-2,0.8c-0.7,0-1.5-0.3-2-0.8L23.2,27c-0.2-0.2-0.2-0.6,0-0.8c0.2-0.2,0.6-0.2,0.8,0
					l6.8,6.8c0.7,0.7,1.8,0.7,2.4,0c0.3-0.3,0.5-0.8,0.5-1.2c0-0.5-0.2-0.9-0.5-1.2l-3.6-3.6l-1.2,1.2c-0.2,0.2-0.6,0.2-0.8,0
					c-0.2-0.2-0.2-0.6,0-0.8l1.6-1.6c0.1-0.1,0.3-0.2,0.4-0.2h0c0.2,0,0.3,0.1,0.4,0.2l4,4C34.6,30.3,34.9,31,34.9,31.8"/>
			</g>
		</g>
	</g>
</g>
</svg>
