<?xml version="1.0" encoding="utf-8"?>
<!-- Generator: Adobe Illustrator 19.0.0, SVG Export Plug-In . SVG Version: 6.00 Build 0)  -->
<svg version="1.1" id="Layer_1" xmlns="http://www.w3.org/2000/svg" xmlns:xlink="http://www.w3.org/1999/xlink" x="0px" y="0px"
	 viewBox="0 0 35 35" style="enable-background:new 0 0 35 35;" xml:space="preserve">
<style type="text/css">
	.st0{fill:#FFFFFF;}
</style>
<g id="Data_Analysis_1_">
	<path id="XMLID_734_" class="st0" d="M29.7,4.4l-1.4-0.3V3.9c0-1.1-0.9-1.9-1.9-1.9h-7.2l-7-1.6c-1-0.2-2.1,0.4-2.3,1.4
		c0,0,0,0,0,0l0,0.2H8.4C7.3,2,6.5,2.8,6.5,3.9v12.5L3.7,28.6c-0.2,1,0.4,2.1,1.4,2.3c0,0,0,0,0,0l1.4,0.3v0.2
		c0,1.1,0.9,1.9,1.9,1.9h7.3l0.1,0l6.9,1.6c1,0.2,2.1-0.4,2.3-1.4c0,0,0,0,0,0l0-0.2h1.4c1.1,0,1.9-0.9,1.9-1.9V18.9l2.8-12.2
		C31.4,5.7,30.8,4.6,29.7,4.4C29.7,4.4,29.7,4.4,29.7,4.4z M6.5,29.9l-1.1-0.3c-0.3-0.1-0.6-0.4-0.5-0.8c0,0,0,0,0,0l1.6-6.7V29.9z
		 M11.9,1.6L13.5,2h-2.3C11.3,1.7,11.6,1.5,11.9,1.6z M23,33.7l-1.6-0.4h2.3C23.6,33.6,23.3,33.7,23,33.7z M27.1,31.4
		c0,0.4-0.3,0.6-0.6,0.6h-18c-0.4,0-0.6-0.3-0.6-0.6V3.9c0-0.4,0.3-0.6,0.6-0.6h18c0.4,0,0.6,0.3,0.6,0.6V31.4z M29.9,6.4l-1.6,6.7
		V5.4l1.1,0.2C29.8,5.7,30,6.1,29.9,6.4C29.9,6.4,29.9,6.4,29.9,6.4z"/>
	<path id="XMLID_720_" class="st0" d="M23.9,28.5H11.6v-5.2c0-0.4-0.3-0.6-0.6-0.6c-0.4,0-0.6,0.3-0.6,0.6v5.9
		c0,0.4,0.3,0.6,0.6,0.6h12.9c0.4,0,0.6-0.3,0.6-0.6S24.2,28.5,23.9,28.5z"/>
	<path id="XMLID_584_" class="st0" d="M13.1,12c1.5,0,2.8-1.2,2.8-2.8c0-0.5-0.2-1-0.4-1.5l1.2-1.2c0.3-0.3,0.3-0.7,0-0.9
		c-0.3-0.3-0.7-0.3-0.9,0l-2.6,2.6l-1.5-1.5c-0.3-0.2-0.7-0.2-0.9,0c-0.2,0.3-0.2,0.7,0,0.9l0,0c-0.3,0.4-0.4,0.9-0.4,1.5
		C10.3,10.7,11.6,12,13.1,12z M11.7,8.7l1,1c0.1,0.1,0.3,0.2,0.5,0.2c0.2,0,0.3-0.1,0.4-0.2l1-1c0.1,0.2,0.1,0.3,0.1,0.5
		c-0.1,0.8-0.8,1.5-1.6,1.4c-0.8,0-1.4-0.7-1.4-1.4C11.6,9,11.6,8.8,11.7,8.7z"/>
	<path id="XMLID_476_" class="st0" d="M13.1,19c1.5,0,2.8-1.2,2.8-2.8c0-1.5-1.2-2.8-2.8-2.8s-2.8,1.2-2.8,2.8c0,0,0,0,0,0
		C10.3,17.8,11.6,19,13.1,19z M13.1,14.7c0.8,0,1.5,0.7,1.5,1.5c0,0.8-0.7,1.5-1.5,1.5c-0.8,0-1.5-0.7-1.5-1.5c0,0,0,0,0,0
		C11.6,15.4,12.3,14.7,13.1,14.7z"/>
	<path id="XMLID_475_" class="st0" d="M23.9,20.4h-2.5c-0.4,0-0.6,0.3-0.6,0.6s0.3,0.6,0.6,0.6h1l-3.6,3.6l-2.5-2.6
		c-0.3-0.2-0.7-0.2-0.9,0L13,25.1c-0.3,0.2-0.3,0.6-0.1,0.9c0.2,0.3,0.6,0.3,0.9,0.1c0,0,0,0,0.1-0.1l1.9-1.9l2.5,2.5
		c0.3,0.3,0.7,0.3,0.9,0c0,0,0,0,0,0l4-4v1c0,0.4,0.3,0.6,0.6,0.6s0.6-0.3,0.6-0.6v-2.5C24.5,20.7,24.2,20.4,23.9,20.4z"/>
	<path id="XMLID_473_" class="st0" d="M18.3,15.6H21c0.4,0,0.6-0.3,0.6-0.6c0-0.4-0.3-0.6-0.6-0.6h-2.8c-0.4,0-0.6,0.3-0.6,0.6
		C17.6,15.3,17.9,15.6,18.3,15.6z"/>
	<path id="XMLID_472_" class="st0" d="M18.3,18.2h5.3c0.4,0,0.6-0.3,0.6-0.6s-0.3-0.6-0.6-0.6h-5.3c-0.4,0-0.6,0.3-0.6,0.6
		S17.9,18.2,18.3,18.2z"/>
	<path id="XMLID_470_" class="st0" d="M18.3,8.5H21c0.4,0,0.6-0.3,0.6-0.6c0-0.4-0.3-0.6-0.6-0.6h-2.8c-0.4,0-0.6,0.3-0.6,0.6
		C17.6,8.3,17.9,8.5,18.3,8.5z"/>
	<path id="XMLID_462_" class="st0" d="M18.3,11.1h5.3c0.4,0,0.6-0.3,0.6-0.6c0-0.4-0.3-0.6-0.6-0.6h-5.3c-0.4,0-0.6,0.3-0.6,0.6
		C17.6,10.8,17.9,11.1,18.3,11.1z"/>
</g>
</svg>
