<?xml version="1.0" encoding="utf-8"?>
<!-- Generator: Adobe Illustrator 19.0.0, SVG Export Plug-In . SVG Version: 6.00 Build 0)  -->
<svg version="1.1" id="Layer_1" xmlns="http://www.w3.org/2000/svg" xmlns:xlink="http://www.w3.org/1999/xlink" x="0px" y="0px"
	 viewBox="0 0 35 35" style="enable-background:new 0 0 35 35;" xml:space="preserve">
<style type="text/css">
	.st0{fill:#FFFFFF;}
</style>
<g id="XMLID_9_">
	<title></title>
	<g id="Layer_20_1_">
		<g id="XMLID_356_">
			<path id="XMLID_727_" class="st0" d="M16.3,16.2C18.5,14.7,20,12,20,8.8c0-4.6-3.3-8.4-7.3-8.4c-4,0-7.3,3.8-7.3,8.4
				c0,3.1,1.5,5.9,3.7,7.3c-4.5,1.7-7.7,6.6-7.7,12.4v5.2c0,0.5,0.4,0.9,0.8,0.9h21c0.5,0,0.8-0.4,0.8-0.9v-5.2
				C24,22.8,20.8,17.9,16.3,16.2z M7,8.8c0-3.7,2.5-6.7,5.7-6.7s5.7,3,5.7,6.7s-2.5,6.7-5.7,6.7S7,12.5,7,8.8z M22.4,32.9H3v-4.3
				c0-6.2,4.3-11.3,9.7-11.3c5.3,0,9.7,5.1,9.7,11.3V32.9z"/>
		</g>
		<g id="XMLID_231_">
			<path id="XMLID_497_" class="st0" d="M34,28.5v5.2c0,0.5-0.4,0.9-0.8,0.9h-8.3v-1.8h7.5v-4.3c0-6.2-4.3-11.3-9.7-11.3h-0.3v-1.8
				h0.3c3.1,0,5.7-3,5.7-6.7s-2.5-6.7-5.7-6.7h-0.3V0.4h0.3c4,0,7.3,3.8,7.3,8.4c0,3.1-1.5,5.9-3.7,7.3C30.8,17.9,34,22.8,34,28.5z"
				/>
		</g>
	</g>
</g>
</svg>
