<?xml version="1.0" encoding="utf-8"?>
<!-- Generator: Adobe Illustrator 19.0.0, SVG Export Plug-In . SVG Version: 6.00 Build 0)  -->
<svg version="1.1" id="Layer_1" xmlns="http://www.w3.org/2000/svg" xmlns:xlink="http://www.w3.org/1999/xlink" x="0px" y="0px"
	 viewBox="0 0 35 35" style="enable-background:new 0 0 35 35;" xml:space="preserve">
<style type="text/css">
	.st0{fill:#FFFFFF;}
</style>
<g id="XMLID_10_">
	<g id="XMLID_313_">
		<g id="XMLID_314_">
			<g id="XMLID_344_">
				<g id="XMLID_345_">
					<g id="XMLID_361_">
						<g id="XMLID_362_">
							<path id="XMLID_363_" class="st0" d="M22.9,15.4c-1.2,1.8-3.1,3.8-5.5,3.4c-2.4-0.4-4-2.5-5-4.5c-0.1-0.3-0.5-0.3-0.8-0.2
								c-0.2,0.1-0.5-0.1-0.6-0.2c-0.3-0.3-0.5-0.7-0.6-1.1c-0.1-0.5-0.3-1.7,0.3-1.9c0.3-0.1,0.4-0.4,0.4-0.7c0,0,0,0,0,0
								c0-0.3-0.4-0.5-0.7-0.4c-0.3,0.1-0.4,0.4-0.4,0.7c0,0,0,0,0,0c0.1-0.2,0.3-0.5,0.4-0.7C9,10.3,9,12.1,9.3,13.2
								c0.4,1.1,1.5,2.4,2.8,1.8c-0.3-0.1-0.5-0.1-0.8-0.2c1.2,2.3,3.1,4.6,5.8,5c2.9,0.4,5.2-1.7,6.7-3.9
								C24.2,15.4,23.3,14.8,22.9,15.4L22.9,15.4z"/>
						</g>
					</g>
					<g id="XMLID_358_">
						<g id="XMLID_359_">
							<path id="XMLID_360_" class="st0" d="M15.4,24.9c1.6,0.6,3.3,0.6,5,0.1c0.7-0.2,0.4-1.3-0.3-1.1c-1.4,0.4-2.9,0.5-4.4-0.1
								C15.1,23.6,14.8,24.7,15.4,24.9L15.4,24.9z"/>
						</g>
					</g>
					<g id="XMLID_355_">
						<g id="XMLID_356_">
							<path id="XMLID_357_" class="st0" d="M29.8,34.3c0-1.8,0-3.6,0-5.3c0-0.7,0-1.5,0-2.2c0-1.6-0.8-3-2.1-3.8
								c-0.8-0.5-1.8-0.6-2.7-0.8c-0.8-0.2-1.6-0.3-2.4-0.5c0.1,0.1,0.2,0.2,0.3,0.2c-0.2-0.3-0.5-0.7-0.7-1
								c-0.4-0.5-1.3-0.5-1.5,0.2c-0.2,0.6-0.3,1.2-0.5,1.7c-0.7,2.2-1.3,4.4-2,6.6c-0.3,0.9-0.6,1.9-0.8,2.8c0.4,0,0.7,0,1.1,0
								c-1-3.5-2.1-6.9-3.1-10.4c-0.1-0.3-0.2-0.5-0.2-0.8c-0.1-0.4-0.6-0.5-1-0.4c-0.3,0-0.5,0.3-0.6,0.5c-0.2,0.3-0.4,0.6-0.6,0.9
								c0.1-0.1,0.2-0.2,0.3-0.2c-0.9,0.2-1.8,0.4-2.7,0.5c-0.3,0.1-0.7,0.1-1,0.2c-0.8,0.2-1.6,0.6-2.2,1.1c-1,0.9-1.4,2.2-1.4,3.4
								c0,0.9,0,1.8,0,2.7c0,1.6,0,3.1,0,4.7c0,0.7,1.1,0.7,1.1,0c0-1.8,0-3.6,0-5.3c0-0.7,0-1.5,0-2.2c0-1.4,0.9-2.7,2.3-3.2
								c0.4-0.1,0.8-0.2,1.2-0.3c0.6-0.1,1.2-0.2,1.8-0.4c0.3-0.1,0.7-0.1,1-0.2c0.3-0.1,0.5-0.5,0.6-0.7c0.1-0.1,0.2-0.3,0.3-0.4
								c0,0,0.1-0.1,0.1-0.1c0.1-0.1-0.1,0.1-0.1,0.1c-0.1-0.1-0.3-0.3-0.4-0.4c1,3.5,2.1,6.9,3.1,10.4c0.1,0.3,0.2,0.5,0.2,0.8
								c0.2,0.5,0.9,0.5,1.1,0c1-3.5,2.1-6.9,3.1-10.4c0.1-0.3,0.2-0.5,0.2-0.8c-0.1,0.1-0.3,0.3-0.4,0.4c0,0-0.1-0.2,0,0
								c0.1,0.1,0.1,0.2,0.2,0.3c0.1,0.2,0.2,0.4,0.4,0.5c0.2,0.3,0.7,0.3,1.1,0.4c1,0.2,1.9,0.4,2.9,0.6c1.5,0.3,2.7,1.5,2.8,3
								c0.1,0.6,0,1.3,0,2c0,2,0,3.9,0,5.9C28.7,35,29.8,35,29.8,34.3L29.8,34.3z"/>
						</g>
					</g>
					<g id="XMLID_352_">
						<g id="XMLID_353_">
							<path id="XMLID_354_" class="st0" d="M14.1,27.8c0,0.7-0.6,1.3-1.3,1.3c-0.7,0-1.3-0.6-1.3-1.3c0-0.7,0.6-1.3,1.3-1.3
								C13.5,26.4,14.1,27.1,14.1,27.8c0,0.7,1.1,0.7,1.1,0c0-1.3-1.1-2.4-2.4-2.4c-1.4,0-2.4,1.1-2.4,2.4c0,1.3,1.1,2.4,2.4,2.4
								c1.4,0,2.4-1.1,2.4-2.4C15.3,27.1,14.1,27.1,14.1,27.8z"/>
						</g>
					</g>
					<g id="XMLID_349_">
						<g id="XMLID_350_">
							<path id="XMLID_351_" class="st0" d="M22.8,31.2c-0.5,0-0.6-0.5-0.6-0.9c0-0.5,0-1.1,0-1.6c0-0.4,0-0.7,0-1.1
								c0-0.7,0.5-1.4,1.2-1.7c0.8-0.3,1.5,0,2.1,0.6c0.3,0.4,0.4,0.9,0.4,1.4c0,0.9,0,1.9,0,2.8c0,0.3-0.2,0.5-0.6,0.6
								c-0.7,0-0.7,1.1,0,1.1c0.9,0,1.7-0.7,1.7-1.6c0-0.4,0-0.7,0-1.1c0-1.1,0.1-2.2-0.3-3.2c-0.8-1.7-3.1-2-4.5-0.9
								c-0.7,0.6-1.1,1.4-1.1,2.2c0,0.4,0,0.7,0,1.1c0,0.6,0,1.3,0,1.9c0,1,0.7,1.7,1.7,1.8C23.5,32.3,23.5,31.2,22.8,31.2
								L22.8,31.2z"/>
						</g>
					</g>
					<g id="XMLID_346_">
						<g id="XMLID_347_">
							<path id="XMLID_348_" class="st0" d="M15.2,6.6c0.2,0.1,0.5,0.2,0.7,0.2c0.1,0,0.1,0,0.2,0.1c0.1,0.1-0.1,0,0.1,0
								c0.1,0.1,0.3,0.1,0.4,0.2c0.3,0.2,0.7,0.3,1,0.5c1.7,1,3.1,2.4,4.1,4.2c1.2,2.3,1.4,4.9,1,7.4c-0.1,0.5,0.5,0.9,0.9,0.5
								c1-0.8,1.8-2,2.4-3.1c1.4-2.6,1.5-5.6,0.7-8.5c-1-3.3-3.1-6.3-6.5-7.6c-2.3-0.8-5.1-0.6-7.2,0.7C12,2,11,3,10.8,4.2
								C10.9,4.1,11,4,11.1,3.9c-0.5,0.4-0.8,1-1.1,1.5C9.4,7,9.6,8.9,10,10.5c0.1,0.3,0.4,0.5,0.7,0.4c2.2-0.7,4.1-2.6,5.1-4.5
								c0.3-0.6-0.6-1.2-1-0.6c-0.7,1.3-1.7,2.4-2.9,3.2c-0.4,0.2-0.8,0.5-1.2,0.7c0,0-0.1,0-0.1,0c-0.1,0.1,0.1,0,0,0
								c-0.1,0-0.1,0-0.2,0.1c0,0-0.1,0-0.1,0.1c0.2,0.1,0.5,0.3,0.7,0.4c-0.3-1.4-0.6-3-0.1-4.5c0.1-0.2,0.1-0.2,0.2-0.5
								c0-0.1,0.1-0.1,0.1-0.2c0,0,0-0.1,0.1-0.1c0.1-0.1-0.1,0.1,0,0c0.1-0.1,0.1-0.1,0.2-0.2c0.1-0.1-0.1,0.1,0,0
								c0.3-0.2,0.3-0.4,0.3-0.7C12,4.1,12,4,12,4c0.1-0.2,0,0.1,0-0.1c0.1-0.1,0.1-0.2,0.2-0.3c0.2-0.4,0.5-0.6,0.9-1
								c0.8-0.6,1.8-1,2.8-1.2c2.6-0.5,5.3,0.5,7.1,2.5c1.3,1.4,2.1,3.2,2.7,5c0.4,1.5,0.5,3,0.3,4.5c-0.3,1.5-0.9,3-1.8,4.2
								c-0.3,0.3-0.5,0.7-0.9,1.1c-0.1,0.1-0.3,0.3-0.4,0.4c0.3,0.2,0.6,0.4,0.9,0.5c0.5-2.9,0.2-6-1.3-8.6c-1-1.8-2.6-3.2-4.3-4.3
								c-0.8-0.5-1.7-0.9-2.6-1.1C14.8,5.4,14.5,6.5,15.2,6.6z"/>
						</g>
					</g>
				</g>
			</g>
			<g id="XMLID_341_">
				<g id="XMLID_342_">
					<path id="XMLID_343_" class="st0" d="M24.6,25.3c0-0.9,0-1.9,0-2.8c0-0.3-0.2-0.5-0.4-0.5c0.1,0,0.2,0.1,0.2,0.1
						c-0.5-0.5-1.3,0.3-0.8,0.8c0.1,0.1,0.1,0.1,0.2,0.1c-0.1-0.2-0.3-0.4-0.4-0.5c0,0.9,0,1.9,0,2.8C23.5,26,24.6,26,24.6,25.3
						L24.6,25.3z"/>
				</g>
			</g>
			<g id="XMLID_338_">
				<g id="XMLID_339_">
					<path id="XMLID_340_" class="st0" d="M15,21c0-1,0-2,0-3c0-0.7-1.1-0.7-1.1,0c0,1,0,2,0,3C13.9,21.7,15,21.7,15,21L15,21z"/>
				</g>
			</g>
			<g id="XMLID_335_">
				<g id="XMLID_336_">
					<path id="XMLID_337_" class="st0" d="M21.9,21c0-1,0-2,0-3c0-0.7-1.1-0.7-1.1,0c0,1,0,2,0,3C20.8,21.7,21.9,21.7,21.9,21
						L21.9,21z"/>
				</g>
			</g>
			<g id="XMLID_332_">
				<g id="XMLID_333_">
					<path id="XMLID_334_" class="st0" d="M13.3,25.9c0-1.2,0-2.4,0-3.7c0-0.7-1.1-0.7-1.1,0c0,1.2,0,2.4,0,3.7
						C12.2,26.6,13.3,26.6,13.3,25.9L13.3,25.9z"/>
				</g>
			</g>
			<g id="XMLID_329_">
				<g id="XMLID_330_">
					<path id="XMLID_331_" class="st0" d="M13.4,21.1L13.4,21.1c-0.2,0.2-0.2,0.6,0,0.8s0.6,0.2,0.8,0l0,0c0.2-0.2,0.2-0.6,0-0.8
						C14,20.9,13.6,20.9,13.4,21.1L13.4,21.1z"/>
				</g>
			</g>
			<g id="XMLID_322_">
				<g id="XMLID_323_">
					<path id="XMLID_326_" class="st0" d="M29.3,33.7c-3,0-6.1,0-9.1,0c-4.2,0-8.3,0-12.5,0c-0.4,0-0.7,0-1.1,0
						c-0.7,0-0.7,1.1,0,1.1c3,0,6.1,0,9.1,0c4.2,0,8.3,0,12.5,0c0.4,0,0.7,0,1.1,0C30,34.8,30,33.7,29.3,33.7L29.3,33.7z"/>
				</g>
			</g>
		</g>
	</g>
</g>
</svg>
