<?xml version="1.0" encoding="utf-8"?>
<!-- Generator: Adobe Illustrator 19.0.0, SVG Export Plug-In . SVG Version: 6.00 Build 0)  -->
<svg version="1.1" id="Layer_1" xmlns="http://www.w3.org/2000/svg" xmlns:xlink="http://www.w3.org/1999/xlink" x="0px" y="0px"
	 viewBox="0 0 16.9 18.1" style="enable-background:new 0 0 16.9 18.1;" xml:space="preserve">
<style type="text/css">
	.st0{fill:#2D87C6;}
</style>
<g id="XMLID_697_">
	<title></title>
	<g id="_06_1_">
		<g id="XMLID_798_">
			<path id="XMLID_511_" class="st0" d="M14.3,17.8H2.7V6.2h1.9v9.7h7.8V6.2h1.9V17.8z M3.2,17.3h10.6V6.7h-0.9v9.7H4.1V6.7H3.2
				V17.3z"/>
		</g>
		<g id="XMLID_706_">
			<path id="XMLID_560_" class="st0" d="M16.4,5.3H0.6V3.4h3.5V0.6h8.8v2.8h3.5V5.3z M1.1,4.8h14.7V3.9h-3.5V1.1H4.6v2.8H1.1V4.8z
				 M11.5,3.9h-6V2h6V3.9z M6,3.4h5V2.5H6V3.4z"/>
		</g>
		<g id="XMLID_699_">
			<path id="XMLID_138_" class="st0" d="M7.4,15H5.5V7.6h1.9V15z M6,14.5h0.9V8.1H6V14.5z"/>
		</g>
		<g id="XMLID_698_">
			<path id="XMLID_130_" class="st0" d="M11.5,15H9.6V7.6h1.9V15z M10.1,14.5H11V8.1h-0.9V14.5z"/>
		</g>
	</g>
</g>
</svg>
