<?xml version="1.0" encoding="utf-8"?>
<!-- Generator: Adobe Illustrator 19.0.0, SVG Export Plug-In . SVG Version: 6.00 Build 0)  -->
<svg version="1.1" id="Layer_1" xmlns="http://www.w3.org/2000/svg" xmlns:xlink="http://www.w3.org/1999/xlink" x="0px" y="0px"
	 viewBox="-289 411.1 17 19.8" style="enable-background:new -289 411.1 17 19.8;" xml:space="preserve">
<style type="text/css">
	.st0{fill:#0A66A4;}
</style>
<g id="XMLID_39_">
	<g id="XMLID_62_">
		<path id="XMLID_63_" class="st0" d="M-278.1,419.7h3.6c0.7,0,1.2-0.6,1.2-1.3c0-0.7-0.5-1.3-1.2-1.3h-0.7l2.8-3
			c0.2-0.2,0.4-0.5,0.4-0.9c0-0.7-0.5-1.3-1.2-1.3c-0.4,0-0.6,0.2-0.9,0.4l-2.8,3v-0.8c0-0.7-0.5-1.3-1.2-1.3
			c-0.7,0-1.2,0.6-1.2,1.3v3.9C-279.3,419.2-278.8,419.7-278.1,419.7z M-287.8,430.1c0.4,0,0.6-0.2,0.9-0.4l2.8-3v0.8
			c0,0.7,0.5,1.3,1.2,1.3c0.7,0,1.2-0.6,1.2-1.3v-3.9c0-0.7-0.5-1.3-1.2-1.3h-3.6c-0.7,0-1.2,0.6-1.2,1.3c0,0.7,0.5,1.3,1.2,1.3h0.7
			l-2.8,3c-0.2,0.2-0.4,0.5-0.4,0.9C-289,429.5-288.5,430.1-287.8,430.1z"/>
	</g>
</g>
</svg>
