<?xml version="1.0" encoding="utf-8"?>
<!-- Generator: Adobe Illustrator 19.0.0, SVG Export Plug-In . SVG Version: 6.00 Build 0)  -->
<svg version="1.1" id="Layer_1" xmlns="http://www.w3.org/2000/svg" xmlns:xlink="http://www.w3.org/1999/xlink" x="0px" y="0px"
	 viewBox="0 0 17 19.8" style="enable-background:new 0 0 17 19.8;" xml:space="preserve">
<style type="text/css">
	.st0{fill:#0A66A4;}
</style>
<g id="XMLID_39_">
	<g id="XMLID_62_">
		<path id="XMLID_63_" class="st0" d="M15.8,0.8h-3.6c-0.7,0-1.2,0.6-1.2,1.3s0.5,1.3,1.2,1.3h0.7l-2.8,3C9.9,6.6,9.7,6.9,9.7,7.3
			c0,0.7,0.5,1.3,1.2,1.3c0.4,0,0.6-0.2,0.9-0.4l2.8-3V6c0,0.7,0.5,1.3,1.2,1.3S17,6.7,17,6V2.1C17,1.3,16.5,0.8,15.8,0.8z
			 M6.1,11.2c-0.4,0-0.6,0.2-0.9,0.4l-2.8,3v-0.8c0-0.7-0.5-1.3-1.2-1.3S0,13.1,0,13.8v3.9c0,0.7,0.5,1.3,1.2,1.3h3.6
			c0.7,0,1.2-0.6,1.2-1.3c0-0.7-0.5-1.3-1.2-1.3H4.1l2.8-3c0.2-0.2,0.4-0.5,0.4-0.9C7.3,11.8,6.8,11.2,6.1,11.2z"/>
	</g>
</g>
</svg>
