<?xml version="1.0" encoding="utf-8"?>
<!-- Generator: Adobe Illustrator 19.0.0, SVG Export Plug-In . SVG Version: 6.00 Build 0)  -->
<svg version="1.1" id="Layer_1" xmlns="http://www.w3.org/2000/svg" xmlns:xlink="http://www.w3.org/1999/xlink" x="0px" y="0px"
	 viewBox="0 0 17.9 18.1" style="enable-background:new 0 0 17.9 18.1;" xml:space="preserve">
<style type="text/css">
	.st0{fill:#2D87C6;}
</style>
<g id="XMLID_79_">
	<g id="Layer_1_1_">
	</g>
	<g id="Layer_2_1_">
		<g id="XMLID_80_">
			<path id="XMLID_81_" class="st0" d="M17.1,6.5c0.3,0,0.6-0.3,0.6-0.6v-5c0,0,0,0,0,0v0c0,0,0,0,0,0c0,0,0,0,0,0c0,0,0,0,0,0
				c0,0,0,0,0,0c0,0,0,0,0,0c0,0,0,0,0,0c0,0,0,0,0,0c0,0,0,0,0,0c0,0,0,0,0,0c0,0,0,0,0,0c0,0,0,0,0,0c0,0,0,0,0,0c0,0,0,0,0,0
				c0,0,0,0,0,0c0,0,0,0,0,0c0,0,0,0,0,0c0,0,0,0,0,0c0,0,0,0,0,0c0,0,0,0,0,0c0,0,0,0,0,0c0,0,0,0,0,0c0,0,0,0,0,0c0,0,0,0,0,0
				c0,0,0,0,0,0c0,0,0,0,0,0c0,0,0,0,0,0c0,0,0,0,0,0c0,0,0,0,0,0c0,0,0,0,0,0s0,0,0,0c0,0,0,0-0.1,0c0,0,0,0,0,0h-5
				c-0.3,0-0.6,0.3-0.6,0.6s0.3,0.6,0.6,0.6h3.5c-0.9,0.9-2.4,2.3-3.8,3.8H6C4.6,3.9,3.2,2.5,2.3,1.5h3.5c0.3,0,0.6-0.3,0.6-0.6
				S6.1,0.3,5.8,0.3h-5c0,0,0,0,0,0c0,0,0,0,0,0c0,0,0,0,0,0c0,0,0,0,0,0c0,0,0,0,0,0c0,0,0,0,0,0c0,0,0,0,0,0c0,0,0,0,0,0
				c0,0,0,0,0,0c0,0,0,0,0,0c0,0,0,0,0,0c0,0,0,0,0,0c0,0,0,0,0,0c0,0,0,0,0,0c0,0,0,0,0,0c0,0,0,0,0,0c0,0,0,0,0,0c0,0,0,0,0,0
				c0,0,0,0,0,0c0,0,0,0,0,0c0,0,0,0,0,0c0,0,0,0,0,0c0,0,0,0,0,0c0,0,0,0,0,0c0,0,0,0,0,0c0,0,0,0,0,0c0,0,0,0,0,0c0,0,0,0,0,0
				c0,0,0,0,0,0c0,0,0,0,0,0c0,0,0,0,0,0.1c0,0,0,0,0,0v5c0,0.3,0.3,0.6,0.6,0.6s0.6-0.3,0.6-0.6V2.4c0.9,0.9,2.3,2.4,3.8,3.8v5.7
				c-1.4,1.4-2.8,2.8-3.8,3.8v-3.5c0-0.3-0.3-0.6-0.6-0.6s-0.6,0.3-0.6,0.6v5v0c0,0,0,0,0,0.1c0,0,0,0,0,0c0,0,0,0,0,0c0,0,0,0,0,0
				c0,0,0,0,0,0c0,0,0,0,0,0c0,0,0,0,0,0c0,0,0,0,0,0c0,0,0,0,0,0c0,0,0,0,0,0c0,0,0,0,0,0c0,0,0,0,0,0c0,0,0,0,0,0c0,0,0,0,0,0
				c0,0,0,0,0,0c0,0,0,0,0,0c0,0,0,0,0,0c0,0,0,0,0,0c0,0,0,0,0,0s0,0,0,0c0,0,0,0,0,0c0,0,0,0,0,0c0,0,0,0,0,0c0,0,0,0,0,0
				c0,0,0,0,0,0c0,0,0,0,0,0s0,0,0,0c0,0,0,0,0,0c0,0,0,0,0,0c0,0,0,0,0.1,0l0,0l0,0h5c0.3,0,0.6-0.3,0.6-0.6s-0.3-0.6-0.6-0.6H2.3
				c0.9-0.9,2.4-2.4,3.8-3.8h5.7c1.4,1.4,2.9,2.9,3.8,3.8h-3.5c-0.3,0-0.6,0.3-0.6,0.6s0.3,0.6,0.6,0.6h5c0,0,0,0,0.1,0c0,0,0,0,0,0
				c0,0,0,0,0,0c0,0,0,0,0,0c0,0,0,0,0,0c0,0,0,0,0,0c0,0,0,0,0,0c0,0,0,0,0,0c0,0,0,0,0,0c0,0,0,0,0,0c0,0,0,0,0,0c0,0,0,0,0,0
				c0,0,0,0,0,0c0,0,0,0,0,0l0,0c0,0,0,0,0,0c0,0,0,0,0,0c0,0,0,0,0,0c0,0,0,0,0,0c0,0,0,0,0,0c0,0,0,0,0,0c0,0,0,0,0,0c0,0,0,0,0,0
				c0,0,0,0,0,0c0,0,0,0,0,0c0,0,0,0,0,0c0,0,0,0,0,0c0,0,0,0,0,0c0,0,0,0,0,0c0,0,0,0,0,0c0,0,0,0,0,0v0c0,0,0,0,0,0v-5
				c0-0.3-0.3-0.6-0.6-0.6s-0.6,0.3-0.6,0.6v3.5c-0.9-0.9-2.4-2.4-3.8-3.8V6.2c1.4-1.4,2.9-2.8,3.8-3.8v3.5
				C16.5,6.2,16.7,6.5,17.1,6.5z M6.4,6.5h5v5h-5V6.5z"/>
		</g>
	</g>
</g>
</svg>
