<?xml version="1.0" encoding="iso-8859-1"?>
<!-- Generator: Adobe Illustrator 16.0.0, SVG Export Plug-In . SVG Version: 6.00 Build 0)  -->
<!DOCTYPE svg PUBLIC "-//W3C//DTD SVG 1.1//EN" "http://www.w3.org/Graphics/SVG/1.1/DTD/svg11.dtd">
<svg version="1.1" id="Capa_1" xmlns="http://www.w3.org/2000/svg" xmlns:xlink="http://www.w3.org/1999/xlink" x="0px" y="0px"
	 width="96.668px" height="96.668px" viewBox="0 0 96.668 96.668" style="enable-background:new 0 0 96.668 96.668;"
	 xml:space="preserve">
<g>
	<path d="M24.666,30.667H0V6.001h24.666V30.667z M72.002,6.001v24.666h24.666V6.001H72.002z M36,90.667h24.666V66.001H36V90.667z
		 M60.666,6.001H36v24.666h24.666V6.001z M0,90.667h24.666V66.001H0V90.667z M72,90.667h24.666V66.001H72V90.667z M86.561,63.067
		V34.303h-4.453v12.031H50.834V35.001h-5v11.333H15.311V34.303h-4.454v28.765h4.454V51.334h30.523v11.333h5V51.334h31.273v11.733
		H86.561z"/>
</g>
<g>
</g>
<g>
</g>
<g>
</g>
<g>
</g>
<g>
</g>
<g>
</g>
<g>
</g>
<g>
</g>
<g>
</g>
<g>
</g>
<g>
</g>
<g>
</g>
<g>
</g>
<g>
</g>
<g>
</g>
</svg>
