<?xml version="1.0" encoding="utf-8"?>
<!-- Generator: Adobe Illustrator 19.0.0, SVG Export Plug-In . SVG Version: 6.00 Build 0)  -->
<svg version="1.1" id="Layer_1" xmlns="http://www.w3.org/2000/svg" xmlns:xlink="http://www.w3.org/1999/xlink" x="0px" y="0px"
	 viewBox="0 0 17 19.8" style="enable-background:new 0 0 17 19.8;" xml:space="preserve">
<style type="text/css">
	.st0{fill:#2D87C6;}
</style>
<g id="XMLID_49_">
	<path id="XMLID_50_" class="st0" d="M16.1,4.4c0.2,0.2,0.4,0.5,0.5,0.8c0.1,0.3,0.2,0.7,0.2,0.9v12.4c0,0.3-0.1,0.5-0.3,0.7
		c-0.2,0.2-0.4,0.3-0.7,0.3H1.3c-0.3,0-0.5-0.1-0.7-0.3c-0.2-0.2-0.3-0.4-0.3-0.7V1.3c0-0.3,0.1-0.5,0.3-0.7S1,0.3,1.3,0.3h9.7
		c0.3,0,0.6,0.1,0.9,0.2c0.3,0.1,0.6,0.3,0.8,0.5L16.1,4.4z M11.3,1.7v4.1h4.1c-0.1-0.2-0.2-0.4-0.2-0.4L11.7,2
		C11.6,1.9,11.5,1.8,11.3,1.7z M15.4,18.2v-11h-4.5c-0.3,0-0.5-0.1-0.7-0.3S9.9,6.4,9.9,6.1V1.6H1.6v16.6H15.4z M9.9,11.8
		c0.2,0.2,0.5,0.4,0.9,0.6c0.4-0.1,0.8-0.1,1.3-0.1c1.1,0,1.7,0.2,1.9,0.5c0.1,0.2,0.1,0.3,0,0.6c0,0,0,0,0,0l0,0v0
		c0,0.3-0.3,0.4-0.8,0.4c-0.3,0-0.8-0.1-1.2-0.2c-0.5-0.1-0.9-0.3-1.4-0.6c-1.6,0.2-3,0.5-4.2,0.9c-1.1,1.9-2,2.8-2.6,2.8
		c-0.1,0-0.2,0-0.3-0.1l-0.3-0.1c0,0,0,0-0.1-0.1C3,16.5,3,16.4,3,16.2c0.1-0.3,0.3-0.6,0.6-1s0.8-0.7,1.4-1c0.1-0.1,0.2,0,0.2,0.1
		c0,0,0,0,0,0c0.4-0.6,0.8-1.3,1.2-2.1c0.5-1,0.9-1.9,1.1-2.8C7.4,8.7,7.3,8.1,7.2,7.6s0-1,0.1-1.4c0.1-0.3,0.2-0.4,0.5-0.4H8
		c0.2,0,0.3,0.1,0.4,0.2c0.1,0.2,0.2,0.4,0.1,0.7c0,0,0,0.1,0,0.1c0,0,0,0.1,0,0.1v0.3c0,0.9-0.1,1.6-0.2,2.1
		C8.7,10.4,9.2,11.3,9.9,11.8z M3.6,16.2c0.4-0.2,0.9-0.7,1.5-1.7c-0.4,0.3-0.7,0.6-0.9,0.9C3.9,15.8,3.7,16,3.6,16.2z M7.9,6.3
		c-0.1,0.3-0.1,0.8,0,1.4c0-0.1,0-0.2,0.1-0.5c0,0,0-0.2,0.1-0.5c0,0,0-0.1,0-0.1c0,0,0,0,0,0c0,0,0,0,0,0c0,0,0,0,0,0
		C8.1,6.5,8,6.4,7.9,6.3C8,6.3,8,6.3,7.9,6.3L7.9,6.3z M6.6,13.4c1-0.4,2-0.7,3.1-0.9c0,0-0.1,0-0.1-0.1s-0.1-0.1-0.2-0.1
		c-0.5-0.5-1-1.1-1.4-1.9c-0.2,0.6-0.5,1.3-0.9,2.1C6.9,13,6.7,13.3,6.6,13.4z M13.6,13.3c-0.2-0.2-0.7-0.3-1.5-0.3
		c0.5,0.2,1,0.3,1.3,0.3C13.5,13.3,13.6,13.3,13.6,13.3C13.6,13.3,13.6,13.3,13.6,13.3z"/>
</g>
</svg>
